<?xml version="1.0" encoding="UTF-8" standalone="no"?>
<!-- Created with Inkscape (http://www.inkscape.org/) -->

<svg
   width="108"
   height="108"
   viewBox="0 0 108 108"
   version="1.1"
   id="svg1"
   inkscape:version="1.4.3 (0d15f75042, 2025-12-25)"
   sodipodi:docname="icon-source-transparent.svg"
   xmlns:inkscape="http://www.inkscape.org/namespaces/inkscape"
   xmlns:sodipodi="http://sodipodi.sourceforge.net/DTD/sodipodi-0.dtd"
   xmlns="http://www.w3.org/2000/svg"
   xmlns:svg="http://www.w3.org/2000/svg">
  <sodipodi:namedview
     id="namedview1"
     pagecolor="#ffffff"
     bordercolor="#000000"
     borderopacity="0.25"
     inkscape:showpageshadow="2"
     inkscape:pageopacity="0.0"
     inkscape:pagecheckerboard="0"
     inkscape:deskcolor="#d1d1d1"
     inkscape:document-units="px"
     inkscape:zoom="3.2642572"
     inkscape:cx="48.249874"
     inkscape:cy="24.354698"
     inkscape:window-width="1025"
     inkscape:window-height="1038"
     inkscape:window-x="0"
     inkscape:window-y="0"
     inkscape:window-maximized="1"
     inkscape:current-layer="svg1"
     showguides="true">
    <sodipodi:guide
       position="21,108"
       orientation="-1,0"
       id="guide1"
       inkscape:locked="false"
       inkscape:label=""
       inkscape:color="rgb(0,134,229)" />
    <sodipodi:guide
       position="87,108"
       orientation="-1,0"
       id="guide2"
       inkscape:locked="false"
       inkscape:label=""
       inkscape:color="rgb(0,134,229)" />
    <sodipodi:guide
       position="0,21"
       orientation="0,1"
       id="guide3"
       inkscape:locked="false"
       inkscape:label=""
       inkscape:color="rgb(0,134,229)" />
    <sodipodi:guide
       position="0,87"
       orientation="0,1"
       id="guide4"
       inkscape:locked="false"
       inkscape:label=""
       inkscape:color="rgb(0,134,229)" />
  </sodipodi:namedview>
  <defs
     id="defs1" />
  <path
     fill="currentColor"
     d="m 73.870554,67.111083 c -1.175645,-2.025081 -2.923231,-7.755031 -2.923231,-15.23893 a 16.946264,16.946264 0 1 0 -33.892528,0 c 0,7.486016 -1.749704,13.213849 -2.92535,15.23893 a 3.3892528,3.3892528 0 0 0 2.92535,5.096592 h 8.644712 a 8.4731322,8.4731322 0 0 0 16.603107,0 h 8.644709 a 3.3892528,3.3892528 0 0 0 2.923231,-5.096592 m -19.869497,8.48584 a 5.0838793,5.0838793 0 0 1 -4.79155,-3.389248 h 9.583108 a 5.0838793,5.0838793 0 0 1 -4.791558,3.389248"
     id="path1-6"
     style="fill:#f3c26c;fill-opacity:1;stroke-width:0.211826"
     inkscape:label="Bell" />
  <g
     fill="currentColor"
     id="g2"
     transform="matrix(0.16977083,0,0,0.16977083,42.266196,25.413424)"
     inkscape:label="Magnifying Glass">
    <path
       d="m 192,112 a 80,80 0 1 1 -80,-80 80,80 0 0 1 80,80"
       opacity="0.2"
       id="path1"
       style="opacity:0.65;fill:#80a3ff;fill-opacity:1"
       inkscape:label="Glass" />
    <path
       id="path2"
       style="fill:#d0d0d0;fill-opacity:1;stroke-width:0;stroke-dasharray:none"
       inkscape:label="Outline"
       d="m 109.30664,21.232422 c -3.01591,0.117432 -6.02411,0.341662 -9.01962,0.715142 -3.589351,0.486466 -7.159683,1.141026 -10.669672,2.038639 -3.85992,0.982117 -7.659296,2.20111 -11.354208,3.689966 -3.434133,1.351629 -6.762113,2.962893 -10.01113,4.710329 -2.918862,1.641548 -5.784118,3.382951 -8.515111,5.32243 -3.255472,2.294645 -6.365702,4.793769 -9.288183,7.500381 -2.526503,2.299218 -4.876822,4.784759 -7.133384,7.348253 -2.330252,2.73156 -4.531538,5.576546 -6.538886,8.554304 -2.200676,3.278519 -4.210807,6.685519 -5.958703,10.227098 -1.585064,3.101717 -2.912309,6.327587 -4.132448,9.588458 -1.223802,3.445343 -2.285167,6.952462 -3.095057,10.518912 -0.896945,3.880899 -1.535091,7.819405 -1.907228,11.785196 -0.342791,3.39861 -0.429922,6.81766 -0.404521,10.2325 0.113078,4.28793 0.457473,8.57525 1.169679,12.80776 0.522995,3.4438 1.326456,6.83897 2.247569,10.19662 0.885757,3.12734 1.959142,6.19723 3.149915,9.2214 1.371414,3.31723 2.887073,6.5783 4.623405,9.72103 1.923438,3.48771 4.059863,6.85772 6.431399,10.05839 2.169469,2.98475 4.569206,5.79651 7.073878,8.50413 2.011092,2.10369 4.109438,4.11651 6.287723,6.0464 3.200537,2.75393 6.550717,5.34235 10.105498,7.62507 2.981665,1.9885 6.124696,3.72285 9.321015,5.34008 3.224359,1.57732 6.534179,2.98428 9.916676,4.18638 3.758434,1.31611 7.59214,2.42032 11.49313,3.22616 3.43345,0.76199 6.923414,1.23297 10.419794,1.59574 4.20711,0.35434 8.4382,0.49273 12.65631,0.2602 3.54792,-0.1339 7.07875,-0.55832 10.58337,-1.11716 3.23811,-0.54053 6.43882,-1.28038 9.60818,-2.13576 3.44641,-1.00431 6.85519,-2.15037 10.16742,-3.53717 3.68046,-1.52279 7.25765,-3.28985 10.70216,-5.28981 3.14747,-1.7982 6.14735,-3.84346 9.06977,-5.98496 0.59547,-0.4704 1.19094,-0.94079 1.78642,-1.41119 16.2385,16.23264 32.45961,32.48441 48.70898,48.70508 1.9011,1.80611 4.48189,2.89531 7.11249,2.88366 2.5612,0.052 5.11328,-0.93544 7.01682,-2.64187 1.9522,-1.75427 3.21645,-4.25777 3.40592,-6.88037 0.22369,-2.54732 -0.55278,-5.1722 -2.12918,-7.18604 -1.75246,-2.06355 -3.79236,-3.86295 -5.6675,-5.81378 -14.58342,-14.58342 -29.16684,-29.16685 -43.75027,-43.75027 2.41732,-2.98743 4.56999,-6.17815 6.58664,-9.44695 1.85269,-3.11278 3.56047,-6.3156 5.04419,-9.62124 1.61896,-3.603 3.02178,-7.30337 4.14681,-11.09064 0.99688,-3.23234 1.75833,-6.53298 2.38869,-9.85547 0.63916,-3.56655 1.08599,-7.1697 1.30706,-10.78662 0.22815,-4.00876 0.22853,-8.03116 -0.0775,-12.03588 -0.21986,-3.44284 -0.71281,-6.862121 -1.3183,-10.256985 -0.69434,-3.555598 -1.55891,-7.081063 -2.6592,-10.533429 -1.21512,-3.828201 -2.67339,-7.577921 -4.38892,-11.210019 -1.4087,-3.03928 -3.03383,-5.973165 -4.76297,-8.841332 -1.89012,-3.052052 -3.94107,-6.007013 -6.16754,-8.823546 -2.48197,-3.11387 -5.13992,-6.088846 -8.01326,-8.847297 -2.41309,-2.37045 -4.9973,-4.561691 -7.66106,-6.645159 -2.6219,-2.032093 -5.37484,-3.887215 -8.18681,-5.645824 -3.62495,-2.164796 -7.36071,-4.154798 -11.25193,-5.800328 -3.24529,-1.438811 -6.60309,-2.608505 -9.99375,-3.654569 -3.50857,-1.0285 -7.07217,-1.882332 -10.6784,-2.489949 -3.95959,-0.673654 -7.96101,-1.093934 -11.97553,-1.231704 -1.9375,-0.111538 -3.88087,-0.02512 -5.82066,-0.04439 z m 5.33594,21.205078 c 3.67292,0.18924 7.33896,0.569473 10.94466,1.308216 3.98924,0.788137 7.90677,1.938198 11.69644,3.413431 3.81661,1.48355 7.49081,3.322337 10.9941,5.441732 3.40433,2.092255 6.63064,4.468784 9.64269,7.095286 2.9526,2.609396 5.69758,5.453846 8.17637,8.518414 2.53681,3.135438 4.79465,6.493896 6.76042,10.015811 1.95179,3.525211 3.59163,7.219055 4.92374,11.022083 1.29503,3.785086 2.27663,7.675279 2.92624,11.623397 0.6296,3.96033 0.92348,7.97109 0.88974,11.98138 -0.0717,4.38641 -0.5309,8.7686 -1.40624,13.06801 -0.73516,3.60714 -1.77581,7.14431 -3.04763,10.59774 -1.38814,3.60721 -3.03136,7.11631 -4.97563,10.45861 -2.02489,3.47235 -4.34574,6.77032 -6.93047,9.84956 -2.59933,3.08405 -5.47178,5.93336 -8.55599,8.53258 -3.07844,2.56718 -6.37462,4.86891 -9.83822,6.88721 -3.44082,1.97383 -7.03961,3.67015 -10.76046,5.04791 -3.78292,1.38901 -7.68343,2.44942 -11.64675,3.1806 -3.90576,0.70024 -7.86777,1.07424 -11.83613,1.11653 -4.42978,0.0243 -8.86631,-0.35094 -13.220723,-1.17074 -4.661475,-0.84981 -9.221165,-2.21222 -13.614578,-3.98224 -4.572303,-1.88862 -8.965128,-4.22427 -13.040274,-7.03306 -3.474537,-2.34958 -6.694315,-5.06098 -9.693752,-7.99017 -3.442326,-3.4516 -6.572509,-7.22404 -9.224764,-11.31784 -2.340944,-3.53141 -4.304579,-7.30325 -5.973283,-11.19558 -1.885794,-4.55589 -3.339924,-9.29578 -4.23002,-14.14825 -0.784309,-4.06978 -1.151162,-8.21337 -1.203676,-12.35625 -0.0069,-3.9665 0.30585,-7.9314 0.94946,-11.84613 0.661196,-3.910861 1.647327,-7.76468 2.949673,-11.51178 1.32321,-3.773866 2.971238,-7.431636 4.911208,-10.929195 1.968908,-3.525269 4.247756,-6.873897 6.783097,-10.016725 2.53113,-3.095247 5.317217,-5.978824 8.327099,-8.611868 3.018504,-2.611305 6.253191,-4.968566 9.66429,-7.042063 3.434504,-2.069418 7.045578,-3.840124 10.777958,-5.306329 3.731808,-1.445135 7.58519,-2.567871 11.505752,-3.371572 3.925533,-0.777448 7.914093,-1.225441 11.914603,-1.34398 1.48547,-0.04835 2.97459,0.0169 4.46105,0.01527 z" />
  </g>
</svg>
